# xmcd
#
# Track frame offsets: 
#        150
#        23676
#        48031
#        70517
#        89254
#        115162
#        131945
#        148152
#        168617
#        195054
#
# Disc length: 2891 seconds
#
# Revision: 0
# Processed by: cddbd v1.5.2PL0 Copyright (c) Steve Scherf et al.
# Submitted via: ExactAudioCopy v1.0b3
#
DISCID=7f0b490a
DTITLE=Truong Vu, Hong Truc - Buon Trong Ky Niem
DYEAR=1998
DGENRE=
TTITLE0=Hong Truc - Tau dem nam cu
TTITLE1=Truong Vu - Buon trong ky niem
TTITLE2=Hong Truc - Cho vua long em
TTITLE3=Truong Vu - Hoa su nha nang
TTITLE4=Hong Truc - Rung la thap
TTITLE5=Truong Vu - Bac trang lua hong
TTITLE6=Hong Truc - Mot minh thoi
TTITLE7=Truong Vu - Sau lan hen cuoi
TTITLE8=Hong Truc - Ke chuyen trong dem
TTITLE9=Hong Truc - Toi tinh
EXTD=
EXTT0=
EXTT1=
EXTT2=
EXTT3=
EXTT4=
EXTT5=
EXTT6=
EXTT7=
EXTT8=
EXTT9=
PLAYORDER=
